<svg width="23" height="21" viewBox="0 0 23 21" fill="none" xmlns="http://www.w3.org/2000/svg">
<path d="M16.2917 17.7379C14.8022 18.9418 12.9824 19.6828 11.0594 19.8546C8.79006 20.0573 6.5218 19.4545 4.65256 18.1519C2.78332 16.8492 1.43248 14.9299 0.837021 12.7307C0.241567 10.5316 0.439531 8.19292 1.39618 6.12512C2.35284 4.05732 4.00708 2.39242 6.06869 1.42251C8.13031 0.452599 10.4676 0.239622 12.6706 0.820943C14.8735 1.40226 16.8015 2.74075 18.1161 4.60159C19.2301 6.17847 19.8435 8.04512 19.8902 9.95977C19.8968 10.2293 19.6533 10.4785 19.3112 10.4502C18.9997 10.4244 18.718 10.1359 18.6968 9.74037C18.6113 8.14685 18.0788 6.60088 17.149 5.28481C15.9949 3.6512 14.3024 2.47615 12.3685 1.96582C10.4345 1.45548 8.38262 1.64245 6.57275 2.49393C4.76289 3.3454 3.31065 4.80699 2.47081 6.62229C1.63098 8.43758 1.45719 10.4906 1.97993 12.4213C2.50267 14.3519 3.68856 16.0368 5.32955 17.1804C6.97053 18.324 8.96181 18.8532 10.954 18.6752C12.559 18.5318 14.082 17.9368 15.3519 16.9704C15.6671 16.7305 16.0693 16.7584 16.2906 16.9792C16.5337 17.2215 16.5014 17.5684 16.2917 17.7379Z" fill="black" stroke="black"/>
<path d="M18.9665 12.4262L17.3896 9.84814L20.9999 10.1906L18.9665 12.4262Z" fill="black" stroke="black"/>
</svg>
