<svg width="29" height="27" viewBox="0 0 29 27" fill="none" xmlns="http://www.w3.org/2000/svg">
<path fill-rule="evenodd" clip-rule="evenodd" d="M11.1118 0.244364C10.6863 0.471746 9.91978 1.31219 9.91978 1.55146C9.91978 1.62292 10.0376 1.74975 10.1814 1.83324C10.3253 1.91672 10.413 2.03768 10.3764 2.10201C10.3397 2.16634 10.4011 2.30129 10.513 2.40183C10.6247 2.50238 10.9461 3.0802 11.227 3.68571C11.5079 4.29136 11.7818 4.76682 11.8354 4.74235C12.0617 4.63943 13.8109 2.52853 13.7703 2.4077C13.7458 2.33485 13.363 1.86079 12.9194 1.35386C12.476 0.847079 12.1131 0.338058 12.1131 0.222829C12.1131 -0.0523783 11.6486 -0.0424497 11.1118 0.244364ZM16.8867 0.206328C16.8867 0.436086 16.3853 1.04901 13.7258 4.07083C12.9452 4.95756 11.8421 6.21669 11.2745 6.86863C10.4734 7.78864 10.0113 8.18523 9.21019 8.64C8.64252 8.96219 7.99369 9.43415 7.7683 9.6888C7.30242 10.215 0.479481 20.4995 0.180678 21.1257C-0.0870326 21.6869 -0.0634225 22.0584 0.292922 22.8878C1.35035 25.3493 4.9018 27.0417 6.0605 25.6361C6.61979 24.9576 13.5483 14.3886 13.6882 14.0002C13.7582 13.8063 13.9227 13.011 14.0539 12.2326C14.2687 10.9583 14.3884 10.6299 15.2592 8.92653C15.791 7.88639 16.671 6.06902 17.2148 4.88778C17.7586 3.70655 18.3237 2.59845 18.4706 2.42546C18.6177 2.25248 18.6843 2.10942 18.6186 2.10774C18.5531 2.10607 18.6408 1.98678 18.8136 1.84289C19.1156 1.59117 19.1195 1.56768 18.9129 1.22605C18.4039 0.384065 16.8867 -0.379606 16.8867 0.206328ZM16.249 8.96345C15.1425 11.1873 15.0527 11.4276 15.0461 12.1776C15.0423 12.6234 15.1123 13.2714 15.2017 13.6175C15.4046 14.403 22.5979 25.3759 23.2199 25.8488C24.5555 26.8642 27.6234 25.2186 28.6801 22.9197C29.0664 22.0795 29.0938 21.7014 28.8111 21.1091C28.492 20.4402 21.8035 10.353 21.2858 9.7597C21.0306 9.46729 20.3282 8.93828 19.7251 8.5842C19.0569 8.19195 18.3972 7.67076 18.0365 7.25012L17.4447 6.55986L16.249 8.96345Z" fill="white"/>
</svg>
