<svg width="30" height="18" viewBox="0 0 30 18" fill="none" xmlns="http://www.w3.org/2000/svg">
<path d="M29.9247 16.7664C28.6709 13.9769 26.1483 11.6905 24.5471 10.2576C24.1996 9.93753 24.1543 9.41927 24.4564 9.05344C26.2087 6.93465 27.8552 4.28236 29.5017 1.30996C29.819 0.730722 29.396 0.029541 28.7465 0.029541H24.26C22.3416 3.48972 20.106 7.13281 18.7011 8.38274C18.2782 8.74857 17.6286 8.45896 17.6286 7.89496V0.684993C17.6286 0.319159 17.3416 0.029541 16.9942 0.029541H11.4806C10.9217 0.029541 10.6196 0.715479 11.0123 1.12704C11.0425 1.15753 11.0727 1.18801 11.103 1.2185C11.828 2.02638 12.2208 3.0934 12.2208 4.1909V9.23635C12.2208 9.70889 11.7374 10.029 11.3144 9.83083C8.68603 8.62663 6.84313 4.2976 5.49872 0.319159C5.4383 0.151486 5.27213 0.029541 5.09087 0.029541H0.634671C0.257028 0.029541 -0.0299815 0.364888 0.000229951 0.730722C0.166393 2.39222 0.589354 4.02322 1.19358 5.57802C3.21775 10.7302 7.38694 15.989 12.9005 17.4829C13.8371 17.7267 17.6286 18.7023 17.6286 16.9341V13.3367C18.4746 11.035 21.6014 14.7848 24.5168 17.9706H29.1392C29.7585 17.9706 30.1815 17.3304 29.9247 16.7664Z" fill="white"/>
</svg>
